# xmcd
#
# Track frame offsets: 
#        150
#        30468
#        60516
#        89830
#        122715
#        150965
#        215118
#        246188
#        283770
#
# Disc length: 4440 seconds
#
# Revision: 0
# Processed by: cddbd v1.5.2PL0 Copyright (c) Steve Scherf et al.
# Submitted via: ExactAudioCopyFreeDBPlugin 1.0
#
DISCID=7d115609
DTITLE=Dżem - Akustycznie
DYEAR=2003
DGENRE=Blues
TTITLE0=Jesiony
TTITLE1=Autsajder
TTITLE2=Złoty paw
TTITLE3=Mała Aleja Róż
TTITLE4=Czerwony jak cegła
TTITLE5=Detox
TTITLE6=List do M.
TTITLE7=Wehikuł czasu - to byłby cud
TTITLE8=Utwor09
EXTD=
EXTT0=
EXTT1=
EXTT2=
EXTT3=
EXTT4=
EXTT5=
EXTT6=
EXTT7=
EXTT8=
PLAYORDER=
